<svg width="211" height="22" viewBox="0 0 211 22" fill="none" xmlns="http://www.w3.org/2000/svg">
<path d="M30.0001 18.1346C28.9501 18.1346 28.0301 17.9096 27.2401 17.4596C26.4601 17.0096 25.8601 16.3746 25.4401 15.5546C25.0201 14.7246 24.8101 13.7546 24.8101 12.6446C24.8101 11.5446 25.0201 10.5846 25.4401 9.76457C25.8601 8.93457 26.4601 8.29957 27.2401 7.85957C28.0301 7.40957 28.9501 7.18457 30.0001 7.18457C30.7201 7.18457 31.3951 7.29957 32.0251 7.52957C32.6651 7.74957 33.1951 8.05957 33.6151 8.45957L32.9851 9.86957C32.5051 9.47957 32.0251 9.19957 31.5451 9.02957C31.0751 8.84957 30.5701 8.75957 30.0301 8.75957C29.0001 8.75957 28.2001 9.09457 27.6301 9.76457C27.0701 10.4346 26.7901 11.3946 26.7901 12.6446C26.7901 13.9046 27.0701 14.8746 27.6301 15.5546C28.1901 16.2246 28.9901 16.5596 30.0301 16.5596C30.5701 16.5596 31.0751 16.4746 31.5451 16.3046C32.0251 16.1246 32.5051 15.8396 32.9851 15.4496L33.6151 16.8596C33.1951 17.2596 32.6651 17.5746 32.0251 17.8046C31.3951 18.0246 30.7201 18.1346 30.0001 18.1346Z" fill="#212121"/>
<path d="M42.3871 10.4246V17.9996H40.5421V16.7846C40.3121 17.2046 39.9821 17.5346 39.5521 17.7746C39.1221 18.0046 38.6321 18.1196 38.0821 18.1196C37.4221 18.1196 36.8371 17.9596 36.3271 17.6396C35.8171 17.3196 35.4221 16.8646 35.1421 16.2746C34.8621 15.6846 34.7221 14.9996 34.7221 14.2196C34.7221 13.4396 34.8621 12.7496 35.1421 12.1496C35.4321 11.5396 35.8321 11.0696 36.3421 10.7396C36.8521 10.3996 37.4321 10.2296 38.0821 10.2296C38.6321 10.2296 39.1221 10.3496 39.5521 10.5896C39.9821 10.8196 40.3121 11.1446 40.5421 11.5646V10.4246H42.3871ZM38.5921 16.6496C39.2121 16.6496 39.6921 16.4346 40.0321 16.0046C40.3721 15.5746 40.5421 14.9696 40.5421 14.1896C40.5421 13.3896 40.3721 12.7746 40.0321 12.3446C39.6921 11.9146 39.2071 11.6996 38.5771 11.6996C37.9571 11.6996 37.4721 11.9246 37.1221 12.3746C36.7821 12.8146 36.6121 13.4296 36.6121 14.2196C36.6121 14.9996 36.7821 15.5996 37.1221 16.0196C37.4721 16.4396 37.9621 16.6496 38.5921 16.6496Z" fill="#212121"/>
<path d="M48.5092 10.2446C48.7992 10.2446 49.0492 10.2846 49.2592 10.3646L49.2442 12.0746C48.9242 11.9446 48.5942 11.8796 48.2542 11.8796C47.6142 11.8796 47.1242 12.0646 46.7842 12.4346C46.4542 12.8046 46.2892 13.2946 46.2892 13.9046V17.9996H44.4292V12.5696C44.4292 11.7696 44.3892 11.0546 44.3092 10.4246H46.0642L46.2142 11.7596C46.4042 11.2696 46.7042 10.8946 47.1142 10.6346C47.5242 10.3746 47.9892 10.2446 48.5092 10.2446Z" fill="#212121"/>
<path d="M56.7868 14.3096H51.5668C51.6068 15.1196 51.8068 15.7196 52.1668 16.1096C52.5368 16.4896 53.0818 16.6796 53.8018 16.6796C54.6318 16.6796 55.4018 16.4096 56.1118 15.8696L56.6518 17.1596C56.2918 17.4496 55.8468 17.6846 55.3168 17.8646C54.7968 18.0346 54.2668 18.1196 53.7268 18.1196C52.4868 18.1196 51.5118 17.7696 50.8018 17.0696C50.0918 16.3696 49.7368 15.4096 49.7368 14.1896C49.7368 13.4196 49.8918 12.7346 50.2018 12.1346C50.5118 11.5346 50.9468 11.0696 51.5068 10.7396C52.0668 10.3996 52.7018 10.2296 53.4118 10.2296C54.4518 10.2296 55.2718 10.5696 55.8718 11.2496C56.4818 11.9196 56.7868 12.8446 56.7868 14.0246V14.3096ZM53.4568 11.5796C52.9568 11.5796 52.5468 11.7296 52.2268 12.0296C51.9168 12.3196 51.7168 12.7446 51.6268 13.3046H55.1518C55.0918 12.7346 54.9168 12.3046 54.6268 12.0146C54.3468 11.7246 53.9568 11.5796 53.4568 11.5796Z" fill="#212121"/>
<path d="M65.0046 14.3096H59.7845C59.8245 15.1196 60.0245 15.7196 60.3845 16.1096C60.7545 16.4896 61.2996 16.6796 62.0196 16.6796C62.8496 16.6796 63.6196 16.4096 64.3296 15.8696L64.8695 17.1596C64.5095 17.4496 64.0645 17.6846 63.5345 17.8646C63.0145 18.0346 62.4845 18.1196 61.9445 18.1196C60.7045 18.1196 59.7296 17.7696 59.0196 17.0696C58.3096 16.3696 57.9545 15.4096 57.9545 14.1896C57.9545 13.4196 58.1095 12.7346 58.4195 12.1346C58.7295 11.5346 59.1645 11.0696 59.7245 10.7396C60.2845 10.3996 60.9196 10.2296 61.6296 10.2296C62.6696 10.2296 63.4895 10.5696 64.0896 11.2496C64.6996 11.9196 65.0046 12.8446 65.0046 14.0246V14.3096ZM61.6745 11.5796C61.1745 11.5796 60.7645 11.7296 60.4445 12.0296C60.1345 12.3196 59.9346 12.7446 59.8446 13.3046H63.3695C63.3095 12.7346 63.1346 12.3046 62.8446 12.0146C62.5646 11.7246 62.1745 11.5796 61.6745 11.5796Z" fill="#212121"/>
<path d="M70.6723 10.2446C70.9623 10.2446 71.2123 10.2846 71.4223 10.3646L71.4073 12.0746C71.0873 11.9446 70.7573 11.8796 70.4173 11.8796C69.7773 11.8796 69.2873 12.0646 68.9473 12.4346C68.6173 12.8046 68.4523 13.2946 68.4523 13.9046V17.9996H66.5923V12.5696C66.5923 11.7696 66.5523 11.0546 66.4723 10.4246H68.2273L68.3773 11.7596C68.5673 11.2696 68.8673 10.8946 69.2773 10.6346C69.6873 10.3746 70.1523 10.2446 70.6723 10.2446Z" fill="#212121"/>
<path d="M81.5626 18.1346C80.5126 18.1346 79.5926 17.9096 78.8026 17.4596C78.0226 17.0096 77.4226 16.3746 77.0026 15.5546C76.5826 14.7246 76.3726 13.7546 76.3726 12.6446C76.3726 11.5446 76.5826 10.5846 77.0026 9.76457C77.4226 8.93457 78.0226 8.29957 78.8026 7.85957C79.5926 7.40957 80.5126 7.18457 81.5626 7.18457C82.2826 7.18457 82.9576 7.29957 83.5876 7.52957C84.2276 7.74957 84.7576 8.05957 85.1776 8.45957L84.5476 9.86957C84.0676 9.47957 83.5876 9.19957 83.1076 9.02957C82.6376 8.84957 82.1326 8.75957 81.5926 8.75957C80.5626 8.75957 79.7626 9.09457 79.1926 9.76457C78.6326 10.4346 78.3526 11.3946 78.3526 12.6446C78.3526 13.9046 78.6326 14.8746 79.1926 15.5546C79.7526 16.2246 80.5526 16.5596 81.5926 16.5596C82.1326 16.5596 82.6376 16.4746 83.1076 16.3046C83.5876 16.1246 84.0676 15.8396 84.5476 15.4496L85.1776 16.8596C84.7576 17.2596 84.2276 17.5746 83.5876 17.8046C82.9576 18.0246 82.2826 18.1346 81.5626 18.1346Z" fill="#212121"/>
<path d="M93.9496 10.4246V17.9996H92.1046V16.7846C91.8746 17.2046 91.5446 17.5346 91.1146 17.7746C90.6846 18.0046 90.1946 18.1196 89.6446 18.1196C88.9846 18.1196 88.3996 17.9596 87.8896 17.6396C87.3796 17.3196 86.9846 16.8646 86.7046 16.2746C86.4246 15.6846 86.2846 14.9996 86.2846 14.2196C86.2846 13.4396 86.4246 12.7496 86.7046 12.1496C86.9946 11.5396 87.3946 11.0696 87.9046 10.7396C88.4146 10.3996 88.9946 10.2296 89.6446 10.2296C90.1946 10.2296 90.6846 10.3496 91.1146 10.5896C91.5446 10.8196 91.8746 11.1446 92.1046 11.5646V10.4246H93.9496ZM90.1546 16.6496C90.7746 16.6496 91.2546 16.4346 91.5946 16.0046C91.9346 15.5746 92.1046 14.9696 92.1046 14.1896C92.1046 13.3896 91.9346 12.7746 91.5946 12.3446C91.2546 11.9146 90.7696 11.6996 90.1396 11.6996C89.5196 11.6996 89.0346 11.9246 88.6846 12.3746C88.3446 12.8146 88.1746 13.4296 88.1746 14.2196C88.1746 14.9996 88.3446 15.5996 88.6846 16.0196C89.0346 16.4396 89.5246 16.6496 90.1546 16.6496Z" fill="#212121"/>
<path d="M104.932 10.2296C105.792 10.2296 106.432 10.4896 106.852 11.0096C107.272 11.5196 107.482 12.2996 107.482 13.3496V17.9996H105.607V13.4096C105.607 12.8096 105.507 12.3796 105.307 12.1196C105.117 11.8496 104.797 11.7146 104.347 11.7146C103.827 11.7146 103.417 11.8996 103.117 12.2696C102.827 12.6296 102.682 13.1296 102.682 13.7696V17.9996H100.807V13.4096C100.807 12.8196 100.702 12.3896 100.492 12.1196C100.292 11.8496 99.9717 11.7146 99.5317 11.7146C99.0117 11.7146 98.6017 11.8996 98.3017 12.2696C98.0017 12.6296 97.8517 13.1296 97.8517 13.7696V17.9996H95.9917V12.5696C95.9917 11.7696 95.9517 11.0546 95.8717 10.4246H97.6267L97.7617 11.6246C97.9817 11.1746 98.2967 10.8296 98.7067 10.5896C99.1267 10.3496 99.6067 10.2296 100.147 10.2296C101.307 10.2296 102.062 10.7096 102.412 11.6696C102.652 11.2196 102.992 10.8696 103.432 10.6196C103.882 10.3596 104.382 10.2296 104.932 10.2296Z" fill="#212121"/>
<path d="M113.803 10.2296C114.453 10.2296 115.028 10.3996 115.528 10.7396C116.038 11.0696 116.433 11.5396 116.713 12.1496C117.003 12.7496 117.148 13.4396 117.148 14.2196C117.148 14.9996 117.008 15.6846 116.728 16.2746C116.448 16.8646 116.053 17.3196 115.543 17.6396C115.043 17.9596 114.463 18.1196 113.803 18.1196C113.253 18.1196 112.763 18.0046 112.333 17.7746C111.903 17.5346 111.573 17.2046 111.343 16.7846V21.2396H109.483V12.5696C109.483 11.7696 109.443 11.0546 109.363 10.4246H111.118L111.268 11.7296C111.468 11.2596 111.793 10.8946 112.243 10.6346C112.693 10.3646 113.213 10.2296 113.803 10.2296ZM113.293 16.6496C113.923 16.6496 114.408 16.4396 114.748 16.0196C115.088 15.5996 115.258 14.9996 115.258 14.2196C115.258 13.4296 115.088 12.8146 114.748 12.3746C114.408 11.9246 113.928 11.6996 113.308 11.6996C112.668 11.6996 112.178 11.9146 111.838 12.3446C111.498 12.7746 111.328 13.3896 111.328 14.1896C111.328 14.9796 111.498 15.5896 111.838 16.0196C112.178 16.4396 112.663 16.6496 113.293 16.6496Z" fill="#212121"/>
<path d="M10.0891 5.1813L2.13525 18.6319L22.2838 18.6636L10.9011 4.36328L10.0891 5.1813Z" fill="#414142"/>
<path d="M14.5037 0.886993L13.2598 0L1.18479 16.9347L2.42877 17.8217L14.5037 0.886993Z" fill="#414142"/>
<path d="M19.8019 17.8196L21.0459 16.9326L9.77146 1.12061L8.52749 2.0076L19.8019 17.8196Z" fill="#EE4823"/>
<path d="M11.0402 5.43709C11.0402 5.43709 11.2497 8.97024 9.72186 13.8753C9.07559 15.843 8.29729 17.4442 7.04843 18.6633C3.964 18.6633 0 18.6047 0 18.6047L10.1755 4.32324L11.0402 5.43709Z" fill="#F2AB1D"/>
<path d="M11.1186 4.60938C11.1186 4.60938 9.92735 7.80301 13.2401 13.544C16.5995 18.4005 22.2889 18.6645 22.2889 18.6645L12.6276 5.13056L11.1186 4.60938Z" fill="#EE4823"/>
<path d="M127.254 15.5534H124.562L124.005 16.926H123L125.49 11.074H126.303L128.801 16.926H127.803L127.254 15.5534ZM126.921 14.7315L125.908 12.2247L124.895 14.7315H126.921Z" fill="#EE0978"/>
<path d="M129.86 11.074H132.25C132.843 11.074 133.305 11.2274 133.635 11.5342C133.965 11.8356 134.13 12.2493 134.13 12.7753C134.13 13.3014 133.962 13.7178 133.627 14.0247C133.297 14.3315 132.838 14.4849 132.25 14.4849H130.858V16.926H129.86V11.074ZM132.134 13.663C132.48 13.663 132.74 13.589 132.915 13.4411C133.096 13.2877 133.186 13.0685 133.186 12.7836C133.186 12.4932 133.098 12.274 132.923 12.126C132.748 11.9726 132.485 11.8959 132.134 11.8959H130.858V13.663H132.134Z" fill="#EE0978"/>
<path d="M135.476 11.074H137.865C138.458 11.074 138.92 11.2274 139.25 11.5342C139.58 11.8356 139.745 12.2493 139.745 12.7753C139.745 13.3014 139.577 13.7178 139.242 14.0247C138.912 14.3315 138.453 14.4849 137.865 14.4849H136.473V16.926H135.476V11.074ZM137.749 13.663C138.095 13.663 138.355 13.589 138.531 13.4411C138.711 13.2877 138.801 13.0685 138.801 12.7836C138.801 12.4932 138.714 12.274 138.538 12.126C138.363 11.9726 138.1 11.8959 137.749 11.8959H136.473V13.663H137.749Z" fill="#EE0978"/>
<path d="M141.091 11.074H142.089V16.0548H144.664V16.926H141.091V11.074Z" fill="#EE0978"/>
<path d="M145.883 11.074H146.88V16.926H145.883V11.074Z" fill="#EE0978"/>
<path d="M151.035 17C150.494 17 150.02 16.8767 149.612 16.6301C149.21 16.3836 148.901 16.0356 148.684 15.5863C148.468 15.1315 148.359 14.6 148.359 13.9918C148.359 13.389 148.468 12.863 148.684 12.4137C148.901 11.9589 149.21 11.611 149.612 11.3699C150.02 11.1233 150.494 11 151.035 11C151.407 11 151.755 11.063 152.079 11.189C152.409 11.3096 152.683 11.4795 152.899 11.6986L152.574 12.4712C152.327 12.2575 152.079 12.1041 151.832 12.011C151.59 11.9123 151.329 11.863 151.051 11.863C150.52 11.863 150.107 12.0466 149.813 12.4137C149.525 12.7808 149.38 13.3068 149.38 13.9918C149.38 14.6822 149.525 15.2137 149.813 15.5863C150.102 15.9534 150.515 16.137 151.051 16.137C151.329 16.137 151.59 16.0904 151.832 15.9973C152.079 15.8986 152.327 15.7425 152.574 15.5288L152.899 16.3014C152.683 16.5205 152.409 16.6932 152.079 16.8192C151.755 16.9397 151.407 17 151.035 17Z" fill="#EE0978"/>
<path d="M157.856 15.5534H155.165L154.608 16.926H153.602L156.093 11.074H156.905L159.403 16.926H158.405L157.856 15.5534ZM157.523 14.7315L156.51 12.2247L155.497 14.7315H157.523Z" fill="#EE0978"/>
<path d="M161.074 11.9452H159.28V11.074H163.882V11.9452H162.08V16.926H161.074V11.9452Z" fill="#EE0978"/>
<path d="M165.035 11.074H166.033V16.926H165.035V11.074Z" fill="#EE0978"/>
<path d="M170.134 17C169.603 17 169.139 16.8795 168.742 16.6384C168.35 16.3918 168.046 16.0438 167.829 15.5945C167.618 15.1397 167.512 14.6055 167.512 13.9918C167.512 13.3836 167.618 12.8548 167.829 12.4055C168.04 11.9507 168.342 11.6027 168.734 11.3616C169.131 11.1205 169.598 11 170.134 11C170.67 11 171.134 11.1205 171.526 11.3616C171.923 11.6027 172.225 11.9507 172.431 12.4055C172.642 12.8548 172.748 13.3836 172.748 13.9918C172.748 14.6055 172.642 15.1397 172.431 15.5945C172.22 16.0438 171.918 16.3918 171.526 16.6384C171.134 16.8795 170.67 17 170.134 17ZM170.134 16.1534C170.644 16.1534 171.041 15.9671 171.325 15.5945C171.609 15.2219 171.75 14.6877 171.75 13.9918C171.75 13.3014 171.609 12.7726 171.325 12.4055C171.041 12.0329 170.644 11.8466 170.134 11.8466C169.623 11.8466 169.226 12.0301 168.943 12.3973C168.659 12.7644 168.517 13.2959 168.517 13.9918C168.517 14.6877 168.659 15.2219 168.943 15.5945C169.226 15.9671 169.623 16.1534 170.134 16.1534Z" fill="#EE0978"/>
<path d="M178.875 11.074V16.926H178.132L175.162 12.8247V16.926H174.234V11.074H174.977L177.939 15.1671V11.074H178.875Z" fill="#EE0978"/>
<path d="M182.401 17C181.978 17 181.581 16.9397 181.21 16.8192C180.843 16.6986 180.532 16.526 180.274 16.3014L180.614 15.5288C180.882 15.7425 181.161 15.9014 181.449 16.0055C181.743 16.1041 182.063 16.1534 182.408 16.1534C182.79 16.1534 183.084 16.0822 183.29 15.9397C183.502 15.7973 183.607 15.5973 183.607 15.3397C183.607 15.1205 183.509 14.9534 183.313 14.8384C183.123 14.7178 182.805 14.6055 182.362 14.5014C181.671 14.3425 181.168 14.137 180.854 13.8849C180.539 13.6329 180.382 13.2658 180.382 12.7836C180.382 12.4384 180.47 12.1315 180.645 11.863C180.82 11.5945 181.068 11.3836 181.387 11.2301C181.712 11.0767 182.086 11 182.509 11C182.896 11 183.262 11.063 183.607 11.189C183.958 11.3096 184.244 11.4795 184.466 11.6986L184.133 12.4712C183.643 12.0548 183.102 11.8466 182.509 11.8466C182.153 11.8466 181.872 11.926 181.666 12.0849C181.46 12.2384 181.357 12.4493 181.357 12.7178C181.357 12.9479 181.447 13.1233 181.627 13.2438C181.813 13.3644 182.127 13.4767 182.571 13.5808C183.03 13.6959 183.404 13.8219 183.692 13.9589C183.981 14.0904 184.203 14.263 184.357 14.4767C184.512 14.6849 184.589 14.9479 184.589 15.2658C184.589 15.6164 184.502 15.9233 184.326 16.1863C184.151 16.4438 183.899 16.6438 183.569 16.7863C183.239 16.9288 182.849 17 182.401 17Z" fill="#EE0978"/>
<path d="M191.009 17C190.478 17 190.014 16.8795 189.617 16.6384C189.225 16.3918 188.92 16.0438 188.704 15.5945C188.492 15.1397 188.387 14.6055 188.387 13.9918C188.387 13.3836 188.492 12.8548 188.704 12.4055C188.915 11.9507 189.217 11.6027 189.609 11.3616C190.006 11.1205 190.472 11 191.009 11C191.545 11 192.009 11.1205 192.401 11.3616C192.798 11.6027 193.1 11.9507 193.306 12.4055C193.517 12.8548 193.623 13.3836 193.623 13.9918C193.623 14.6055 193.517 15.1397 193.306 15.5945C193.094 16.0438 192.793 16.3918 192.401 16.6384C192.009 16.8795 191.545 17 191.009 17ZM191.009 16.1534C191.519 16.1534 191.916 15.9671 192.2 15.5945C192.483 15.2219 192.625 14.6877 192.625 13.9918C192.625 13.3014 192.483 12.7726 192.2 12.4055C191.916 12.0329 191.519 11.8466 191.009 11.8466C190.498 11.8466 190.101 12.0301 189.818 12.3973C189.534 12.7644 189.392 13.2959 189.392 13.9918C189.392 14.6877 189.534 15.2219 189.818 15.5945C190.101 15.9671 190.498 16.1534 191.009 16.1534Z" fill="#EE0978"/>
<path d="M195.109 11.074H197.499C198.092 11.074 198.553 11.2274 198.883 11.5342C199.213 11.8356 199.378 12.2493 199.378 12.7753C199.378 13.3014 199.211 13.7178 198.876 14.0247C198.546 14.3315 198.087 14.4849 197.499 14.4849H196.107V16.926H195.109V11.074ZM197.383 13.663C197.728 13.663 197.989 13.589 198.164 13.4411C198.344 13.2877 198.435 13.0685 198.435 12.7836C198.435 12.4932 198.347 12.274 198.172 12.126C197.996 11.9726 197.733 11.8959 197.383 11.8959H196.107V13.663H197.383Z" fill="#EE0978"/>
<path d="M200.724 11.074H204.406V11.9123H201.699V13.5315H204.243V14.3699H201.699V16.0877H204.406V16.926H200.724V11.074Z" fill="#EE0978"/>
<path d="M210.429 11.074V16.926H209.686L206.716 12.8247V16.926H205.788V11.074H206.53L209.493 15.1671V11.074H210.429Z" fill="#EE0978"/>
</svg>
